<svg xmlns="http://www.w3.org/2000/svg" width="12" height="12" viewBox="0 0 12 12"><defs><style>.a{fill:#f8f5fc;stroke:#e4e3e4;stroke-width:0.2px;}.b{fill:#fdae27;}.c{stroke:none;}.d{fill:none;}</style></defs><g transform="translate(-120 -317)"><g transform="translate(-36 58.235)"><g transform="translate(156 258.551)"><g class="a" transform="translate(0 0.214)"><circle class="c" cx="6" cy="6" r="6"/><circle class="d" cx="6" cy="6" r="5.9"/></g></g></g><path class="b" d="M38.005,136.427a3.189,3.189,0,1,1,2.54-5.113L39.382,132a1.871,1.871,0,0,0-1.377-.607,1.851,1.851,0,1,0,0,3.7,1.918,1.918,0,0,0,1.377-.607l1.163.684A3.2,3.2,0,0,1,38.005,136.427Zm4.78-3.463v-.522h-.522V131.9h-.539v.539h-.53V131.9h-.539v.539h-.522v.522h.522v.539h-.522v.522h.522v.539h.539v-.539h.522v.539h.539v-.539h.522V133.5h-.522v-.539Zm-1.052.547h-.539v-.539h.539Z" transform="translate(87.184 189.952)"/></g></svg>