<svg xmlns="http://www.w3.org/2000/svg" width="30" height="30" viewBox="0 0 30 30"><defs><style>.a{fill:#e84142;fill-rule:evenodd;}</style></defs><path class="a" d="M30.5,16a15,15,0,1,1-15-15A15,15,0,0,1,30.5,16ZM11.249,21.969H8.338a2.337,2.337,0,0,1-1.1-.118.74.74,0,0,1-.335-.579c-.011-.217.14-.483.442-1.013L14.535,7.59c.306-.538.461-.807.656-.906a.742.742,0,0,1,.671,0c.2.1.35.368.656.906L18,10.169l.008.013a4.838,4.838,0,0,1,.571,1.177,2.188,2.188,0,0,1,0,1.024A4.857,4.857,0,0,1,18,13.574l-3.776,6.674-.01.017a4.788,4.788,0,0,1-.735,1.1,2.2,2.2,0,0,1-.9.52A5.267,5.267,0,0,1,11.249,21.969Zm7.351,0h4.171a2.32,2.32,0,0,0,1.109-.121.737.737,0,0,0,.335-.582c.011-.21-.137-.465-.427-.965l-.03-.052L21.67,16.674l-.024-.04c-.294-.5-.442-.747-.632-.844a.734.734,0,0,0-.667,0c-.192.1-.346.361-.652.888l-2.082,3.574-.007.012c-.3.526-.457.789-.446,1a.746.746,0,0,0,.335.582A2.357,2.357,0,0,0,18.6,21.969Z" transform="translate(-0.5 -1)"/></svg>