<svg xmlns="http://www.w3.org/2000/svg" width="16.614" height="16.614" viewBox="0 0 16.614 16.614"><defs><style>.a{fill:#3e95fc;}</style></defs><g transform="translate(-127 -127.2)"><path class="a" d="M252.29,127.2h-9.227a2.458,2.458,0,0,0-2.464,2.464v9.227a2.458,2.458,0,0,0,2.464,2.464h9.227a2.458,2.458,0,0,0,2.464-2.464v-9.227A2.458,2.458,0,0,0,252.29,127.2Zm1.134,11.626a1.2,1.2,0,0,1-1.2,1.2h-9.1a1.2,1.2,0,0,1-1.2-1.2v-9.1a1.2,1.2,0,0,1,1.2-1.2h9.1a1.2,1.2,0,0,1,1.2,1.2Z" transform="translate(-111.141)"/><path class="a" d="M127.619,279.3a.628.628,0,0,0-.619.552V290.1a2.658,2.658,0,0,0,2.665,2.518h10.058a.642.642,0,0,0,.623-.593.628.628,0,0,0-.623-.624l-10.026,0a1.458,1.458,0,0,1-1.455-1.455V279.923A.628.628,0,0,0,127.619,279.3Z" transform="translate(0 -148.807)"/></g></svg>