<svg xmlns="http://www.w3.org/2000/svg" width="15.158" height="18" viewBox="0 0 15.158 18"><defs><style>.a{fill:#19a47c;}</style></defs><path class="a" d="M150.111,67.225a1.182,1.182,0,0,0-.795-.3c-.027,0-.054,0-.08,0s-.2.013-.5.013a10.7,10.7,0,0,1-2.33-.246,9.817,9.817,0,0,1-2.885-1.8,1.2,1.2,0,0,0-1.295,0,7.461,7.461,0,0,1-2.817,1.806,10.835,10.835,0,0,1-2.347.246c-.293,0-.48-.011-.5-.013s-.051,0-.077,0a1.189,1.189,0,0,0-.8.3,1.11,1.11,0,0,0-.37.823v2.818c0,10.417,7.048,11.759,7.347,11.812a1.281,1.281,0,0,0,.412,0c.3-.054,7.4-1.4,7.4-11.812V68.048A1.109,1.109,0,0,0,150.111,67.225Zm-2.605,4.03-4.886,4.728a.686.686,0,0,1-.113.142.773.773,0,0,1-1.041,0,.689.689,0,0,1-.114-.142l-2.611-2.528a.672.672,0,0,1,0-.973.731.731,0,0,1,1.007,0l2.238,2.167,4.514-4.367a.73.73,0,0,1,1.007,0A.672.672,0,0,1,147.505,71.255Z" transform="translate(-135.323 -64.696)"/></svg>