<svg xmlns="http://www.w3.org/2000/svg" width="17.852" height="18" viewBox="0 0 17.852 18"><defs><style>.a{fill:#d23d3d;}</style></defs><g transform="translate(-24.88)"><path class="a" d="M72.2,162.432a5.856,5.856,0,0,1,5.85,5.6l.006.254v5.656l.586,0a1.757,1.757,0,0,1,0,3.513H65.757a1.757,1.757,0,1,1,0-3.513h.586v-5.658a5.856,5.856,0,0,1,5.6-5.851Zm6.07,12.844H77.209l-.105.009a.586.586,0,0,0,.105,1.162h1.059l.105-.011a.586.586,0,0,0-.105-1.161Zm-4.424,0h-7.7l-.105.009a.586.586,0,0,0,.105,1.162h7.7l.105-.011a.586.586,0,0,0-.105-1.161Zm-.714-9.96-3.273,4.3,1.457.526-.8,3.491,3.293-4.079L72.27,169l.86-3.683Z" transform="translate(-38.404 -159.46)"/><path class="a" d="M42.7,6.474a.586.586,0,0,1-.375.738l-1.262.41A.586.586,0,1,1,40.7,6.508l1.261-.41a.586.586,0,0,1,.738.375ZM25.622,6.1l1.261.41A.586.586,0,0,1,26.52,7.62l-1.26-.41A.586.586,0,0,1,25.622,6.1ZM39.3,1.788a.586.586,0,0,1,.129.82L38.65,3.68a.586.586,0,1,1-.947-.687l.78-1.074a.586.586,0,0,1,.817-.129Zm-10.2.13.78,1.074a.586.586,0,0,1-.949.687l-.779-1.073a.586.586,0,0,1,.949-.689ZM33.794,0a.586.586,0,0,1,.586.586V1.911a.586.586,0,0,1-1.171,0V.586A.586.586,0,0,1,33.794,0Z" transform="translate(0)"/></g></svg>