<svg xmlns="http://www.w3.org/2000/svg" width="10.5" height="6" viewBox="0 0 10.5 6"><defs><style>.a{fill:#707070;}</style></defs><g transform="translate(0 6) rotate(-90)"><path class="a" d="M237.547,5.345a.575.575,0,0,1,.809,0,.566.566,0,0,1,0,.8L233.5,10.985a.575.575,0,0,1-.809,0,.566.566,0,0,1,0-.8Z" transform="translate(-232.525 -5.177)"/><path class="a" d="M238.357,463.7a.566.566,0,0,1,0,.8.575.575,0,0,1-.809,0l-4.856-4.838a.566.566,0,0,1,0-.8.575.575,0,0,1,.809,0Z" transform="translate(-232.524 -454.165)"/></g></svg>