<svg xmlns="http://www.w3.org/2000/svg" width="30.5" height="30.5" viewBox="0 0 30.5 30.5"><defs><style>.a{fill:none;stroke:#707070;stroke-width:0.5px;fill-rule:evenodd;}.b{fill:#5f658c;}.c{fill:#8891ae;}.d{fill:#868bb1;}.e{fill:#5e648d;}.f{fill:#61668d;}.g{fill:#404871;}</style></defs><g transform="translate(0.25 0.25)"><path class="a" d="M15,30A15,15,0,1,0,0,15,15,15,0,0,0,15,30Z"/><g transform="translate(9 5)"><path class="b" d="M508.1,162.6v8.306l6,1.868Z" transform="translate(-502.1 -162.6)"/><path class="c" d="M310.1,162.6v8.306l-6,1.868Z" transform="translate(-304.1 -162.6)"/><path class="d" d="M310.1,546.688v-5.779l-6-3.309Z" transform="translate(-304.1 -526.57)"/><path class="e" d="M508.1,546.688v-5.779l6-3.309Z" transform="translate(-502.1 -526.57)"/><path class="f" d="M304.1,416.488l6-2.788v5.735Z" transform="translate(-304.1 -406.315)"/><path class="g" d="M514.1,416.488l-6-2.788v5.735Z" transform="translate(-502.1 -406.315)"/></g></g></svg>