<svg xmlns="http://www.w3.org/2000/svg" width="30" height="30" viewBox="0 0 30 30"><defs><style>.a,.b{fill:#1f6af8;}.a{fill-rule:evenodd;opacity:0.1;}</style></defs><path class="a" d="M15,30A15,15,0,1,0,0,15,15,15,0,0,0,15,30Z"/><g transform="translate(7 5)"><path class="b" d="M6.992.191a2,2,0,0,1,1.7,0l4.937,2.6a.832.832,0,0,1,.48.617h.005V16.45a.813.813,0,0,1-.486.678L8.7,19.725a2,2,0,0,1-1.7,0l-4.937-2.6a.8.8,0,0,1-.475-.678c0-.022,0-.041,0-.056V3.4a.8.8,0,0,1,.475-.615ZM13.34,10.682,8.7,13.122a2,2,0,0,1-1.7,0L2.357,10.688v5.737l4.635,2.424a2.275,2.275,0,0,0,.748.287l.106.007a1.956,1.956,0,0,0,.819-.272L13.343,16.4v-5.72ZM.777,16.166a2.394,2.394,0,0,0,.174,1.06,1.353,1.353,0,0,0,.5.517l.015.01c.058.039.122.08.2.127l.092.056.28.169-.4.66-.314-.189-.054-.032c-.091-.056-.166-.1-.236-.149A2.243,2.243,0,0,1,0,16.2v-.035H.777ZM7.454,7.184a.819.819,0,0,0-.1.042l-4.936,2.6L2.4,9.832h0l.008.005.012.006,4.937,2.6a.73.73,0,0,0,.1.042Zm.779,0v5.3a.73.73,0,0,0,.1-.042l4.937-2.6.015-.008h0l-.008,0-.012-.006L8.332,7.231a.73.73,0,0,0-.1-.042ZM13.34,4.332,8.909,6.66,13.34,8.988V4.329ZM2.357,4.337V8.983L6.775,6.66ZM8.332.876a1.236,1.236,0,0,0-.978,0L2.418,3.47,2.4,3.478l0,0,.008,0,.012.005,4.937,2.6a1.228,1.228,0,0,0,.978,0l4.937-2.6.015-.005,0,0-.008,0-.012-.006Zm5.737.286.314.189.056.028.236.149a2.24,2.24,0,0,1,1.035,2.194v.035h-.78a2.4,2.4,0,0,0-.174-1.06,1.35,1.35,0,0,0-.5-.516l-.015-.01c-.056-.039-.121-.08-.2-.127l-.091-.052-.28-.169.4-.66Z" transform="translate(0 -0.001)"/></g></svg>