<svg xmlns="http://www.w3.org/2000/svg" width="30" height="30" viewBox="0 0 30 30"><defs><style>.a{fill:#74af70;fill-rule:evenodd;opacity:0.24;}.b,.c{fill:none;stroke-width:1.5px;}.b{stroke:#6cac67;}.c{stroke:#74af70;}</style></defs><path class="a" d="M15,30A15,15,0,1,0,0,15,15,15,0,0,0,15,30Z"/><path class="b" d="M-153.086-26.682a8.785,8.785,0,0,0-2.565-6.4s-.083-.048-.078.073h0c-.092,5.775-3.034,7.34-4.663,9.452a7.084,7.084,0,0,0-1.294,6.455,7.084,7.084,0,0,0,4.577,4.732c1.98.552-.458-.975-.771-4.2-.381-3.906,4.794-6.882,4.794-10.112" transform="translate(170.306 38.095)"/><path class="c" d="M76.93,248.008a.057.057,0,0,0-.083.01,10.639,10.639,0,0,1-1.863,3.708c-3.4,4.843-1.461,7.179-.375,8.433.634.727,0,0,1.585-.746a6.73,6.73,0,0,0,3.409-5.168,7.3,7.3,0,0,0-2.673-6.238" transform="translate(-57.764 -234.628)"/></svg>