<?xml version="1.0" encoding="utf-8"?>
<!-- Generator: Adobe Illustrator 24.2.1, SVG Export Plug-In . SVG Version: 6.00 Build 0)  -->
<svg version="1.1" xmlns="http://www.w3.org/2000/svg" xmlns:xlink="http://www.w3.org/1999/xlink" x="0px" y="0px"
	 viewBox="0 0 175 175" style="enable-background:new 0 0 175 175;" xml:space="preserve">
<style type="text/css">
	.st0{fill:#E8F1FF;}
	.st1{fill:#6397FF;}
	.st2{fill:#D9ECFC;}
	.st3{fill:#EDEDED;}
	.st4{fill:#FFFFFF;}
	.st5{fill:#B7B7B7;}
	.st6{fill:#FFFDFD;}
	.st7{font-family:'SourceHanSansCN-Bold-GBpc-EUC-H';}
	.st8{font-size:14px;}
</style>
<g id="quan_x5F_b">
	<circle id="椭圆_22" class="st0" cx="87.5" cy="87.5" r="87.5"/>
</g>
<g id="quan_x5F_a">
	<ellipse id="椭圆_21" class="st1" cx="87" cy="87.5" rx="61" ry="60.5"/>
</g>
<g id="LOGO">
	<path id="路径_15762" class="st2" d="M126.3,77.3c-6.1,3.1-12.4,5.9-18.8,8.4c-7.8,3-16,5.7-20.9,5.9c-0.1,0-0.1-0.1-0.1-0.1
		l0.1-6.1l0-2.4c0-0.1,0.1-0.1,0.1-0.1c0,0,0,0,0,0h0.2c0.3,0,0.6,0,0.9,0c0.1,0,0.2,0,0.3,0c0.2,0,0.4,0,0.7-0.1c0.1,0,0.2,0,0.3,0
		c0,0,0.1,0,0.1,0c0.2,0,0.4-0.1,0.6-0.1c0.1,0,0.2,0,0.4-0.1l0.4-0.1c0.4-0.1,0.7-0.1,1.1-0.2c1.3-0.3,2.6-0.6,3.9-1l0.4-0.1
		c0.6-0.2,1.2-0.3,1.7-0.5c0.2-0.1,0.4-0.1,0.6-0.2c0.2-0.1,0.4-0.1,0.6-0.2c0.9-0.3,1.8-0.6,2.6-0.9c0.2-0.1,0.4-0.2,0.6-0.2
		c0.3-0.1,0.7-0.2,1-0.4c0.1,0,0.2-0.1,0.3-0.1c1.2-0.4,2.1-0.8,2.7-1c0.1,0,0.2-0.1,0.2-0.1h0c0.1,0,0.1,0,0.2-0.1c0,0,0.1,0,0.1,0
		l0.1,0l0-0.1l-1.9-9.4l0-0.1l-0.1,0c0,0,0,0-0.1,0c0,0-0.1,0-0.1,0c-0.1,0-0.1,0-0.2,0.1c0,0-0.1,0-0.1,0c-0.1,0-0.3,0.1-0.5,0.1
		l-0.1,0c-0.1,0-0.1,0-0.2,0.1c0,0-0.1,0-0.1,0c-0.3,0.1-0.5,0.2-0.9,0.3c-0.2,0.1-0.5,0.2-0.8,0.2c-0.2,0.1-0.5,0.1-0.7,0.2
		c-0.2,0.1-0.4,0.1-0.7,0.2c-0.4,0.1-0.8,0.2-1.3,0.4c-0.1,0-0.2,0.1-0.4,0.1c-0.5,0.2-1.1,0.3-1.7,0.5c-3.1,0.8-6.2,1.4-9.3,1.8
		c-0.1,0-0.3,0-0.4,0l-0.2,0c-0.1,0-0.1-0.1-0.1-0.1v0l0.4-27.3c0-0.1,0.1-0.1,0.1-0.1l7-0.5c2.7-0.2,5.2,1.6,5.8,4.3l4.5,19.6
		c0,0,0,0.1,0.1,0.1c1.3,0.4,19.1,5.9,21.6,9.3C126.3,77.2,126.3,77.3,126.3,77.3C126.3,77.3,126.3,77.3,126.3,77.3z"/>
	<path id="路径_15763" class="st3" d="M86.5,83C86.5,83,86.5,83,86.5,83l0,2.4L86.5,83z"/>
	<path id="路径_15764" class="st3" d="M87.1,44.5C87.1,44.4,87.1,44.4,87.1,44.5l-0.4,27.3L87.1,44.5z"/>
	<path id="路径_15765" class="st3" d="M103.1,68.2c-0.3,0.1-0.5,0.2-0.9,0.3C102.6,68.4,102.9,68.3,103.1,68.2z"/>
	<path id="路径_15766" class="st3" d="M104.6,67.9c0-0.1-0.1-0.1-0.1-0.1c0,0,0,0,0,0l0.1,0L104.6,67.9z"/>
	<path id="路径_15767" class="st3" d="M106.5,77.4L106.5,77.4c0,0,0-0.1,0-0.1L106.5,77.4z"/>
	<path id="路径_15768" class="st4" d="M87.1,44.3L87.1,44.3c0,0.1,0,0.1,0,0.1l-0.4,27.3v0.1c-0.3,0-0.6,0-0.9,0
		c-6.6,0-18.7-3-18.7-3s-1.7,6.5-1.8,6.6c4.9,5.8,14.7,7.1,21,7.4c0.1,0,0.2,0,0.3,0V83c0,0,0,0,0,0l0,2.4l-0.1,6.1v0.1
		c-5.2,0.1-12.6-2.2-19.6-5.1c-10-4.2-19.1-9.4-19.1-9.8c0-0.7,16.8-8.4,19.8-8.9l6.5-21.9c0.4-1.4,1.7-2.3,3.1-2.2L87.1,44.3z"/>
	<path id="路径_15769" class="st4" d="M86.5,83l0,2.4L86.5,83C86.5,83,86.5,83,86.5,83z"/>
	<path id="路径_15770" class="st4" d="M87.1,44.4l-0.4,27.3L87.1,44.4C87.1,44.4,87.1,44.4,87.1,44.4z"/>
	<path id="路径_15771" class="st4" d="M102.3,68.5c0.3-0.1,0.6-0.2,0.9-0.3C102.9,68.3,102.6,68.4,102.3,68.5z"/>
	<path id="路径_15772" class="st4" d="M104.6,67.7l0,0.1c0-0.1-0.1-0.1-0.1-0.1c0,0,0,0,0,0L104.6,67.7z"/>
	<path id="路径_15773" class="st4" d="M106.5,77.4L106.5,77.4c0,0,0-0.1,0-0.1L106.5,77.4z"/>
	<path id="路径_15774" class="st5" d="M102.3,68.5c0.3-0.1,0.6-0.2,0.9-0.3C102.9,68.3,102.6,68.4,102.3,68.5z"/>
	<path id="路径_15775" class="st5" d="M104.6,67.7l0,0.1c0-0.1-0.1-0.1-0.1-0.1c0,0,0,0,0,0L104.6,67.7z"/>
	<path id="路径_15776" class="st5" d="M106.5,77.4L106.5,77.4c0,0,0-0.1,0-0.1L106.5,77.4z"/>
	<g id="组_21486" transform="translate(0 50.049)">
		<path id="路径_15777" class="st6" d="M105.4,45.5c-6,2-12.2,3.1-18.5,3.1c-6.3,0-12.5-1-18.5-3.1c2,5.7,5.8,10.5,10.9,13.8h15.2
			C99.5,56.1,103.4,51.2,105.4,45.5z"/>
		<path id="路径_15778" class="st6" d="M66.9,53.6L52,59.3h23.9c-4.7-3.7-8.2-8.8-9.9-14.6c-0.8-0.3-1.5-0.6-2.3-0.9L66.9,53.6z"
			/>
		<path id="路径_15779" class="st6" d="M47.1,59.3l17.3-6.8l-0.8-1.9l-22.3,8.7L47.1,59.3z"/>
		<path id="路径_15780" class="st6" d="M107.1,53.6l14.9,5.7H98.1c4.7-3.7,8.2-8.8,9.9-14.6c0.8-0.3,1.5-0.6,2.3-0.9L107.1,53.6z"
			/>
		<path id="路径_15781" class="st6" d="M126.9,59.3l-17.3-6.8l0.8-1.9l22.3,8.7L126.9,59.3z"/>
	</g>
	<text transform="matrix(1 0 0 1 49.5957 128)" class="st4 st7 st8">WHITE HAT</text>
</g>
</svg>
