<svg xmlns="http://www.w3.org/2000/svg" width="30" height="30" viewBox="0 0 30 30"><defs><style>.a{fill:#ff0420;}.b{fill:#fff;}</style></defs><circle class="a" cx="15" cy="15" r="15"/><g transform="translate(4 9)"><path class="b" d="M4.268,11.269a5.1,5.1,0,0,1-3.082-.877A2.985,2.985,0,0,1,0,7.857a5.576,5.576,0,0,1,.079-.845Q.285,5.885.664,4.3A5.181,5.181,0,0,1,6.212,0,5.562,5.562,0,0,1,8.393.407,3.31,3.31,0,0,1,9.911,1.6a3.17,3.17,0,0,1,.553,1.878,5.512,5.512,0,0,1-.079.83Q10.148,5.7,9.816,7.012A5.733,5.733,0,0,1,7.9,10.221,5.8,5.8,0,0,1,4.268,11.269Zm.221-2.254a2.26,2.26,0,0,0,1.5-.517,2.875,2.875,0,0,0,.9-1.581q.364-1.471.553-2.567a3.555,3.555,0,0,0,.063-.673q0-1.424-1.5-1.424a2.322,2.322,0,0,0-1.517.517A2.926,2.926,0,0,0,3.6,4.351Q3.319,5.4,3.035,6.918a3.314,3.314,0,0,0-.063.657Q2.972,9.015,4.489,9.015Z"/><path class="b" d="M21.165,11.234a.336.336,0,0,1-.269-.11.371.371,0,0,1-.047-.282L23.03.669A.447.447,0,0,1,23.2.387a.485.485,0,0,1,.3-.11h4.2A4.923,4.923,0,0,1,30.522,1,2.352,2.352,0,0,1,31.6,3.079a3.715,3.715,0,0,1-.095.814,4.231,4.231,0,0,1-1.6,2.661,5.445,5.445,0,0,1-3.256.861H24.516l-.727,3.428a.447.447,0,0,1-.174.282.485.485,0,0,1-.3.11Zm5.6-5.979a1.9,1.9,0,0,0,1.154-.36,1.689,1.689,0,0,0,.664-1.033,2.715,2.715,0,0,0,.047-.47.865.865,0,0,0-.269-.689,1.334,1.334,0,0,0-.917-.25h-1.9l-.6,2.8Z" transform="translate(-9.097 -0.121)"/></g></svg>