<svg xmlns="http://www.w3.org/2000/svg" width="30" height="30" viewBox="0 0 30 30"><defs><style>.a{fill:#7950dd;}.b{fill:#6960dc;fill-rule:evenodd;opacity:0.28;}</style></defs><path class="a" d="M13.879,5.033a1.139,1.139,0,0,0-1.154,0l-2.647,1.6L8.28,7.68l-2.647,1.6a1.14,1.14,0,0,1-1.154,0l-2.1-1.254A1.207,1.207,0,0,1,1.8,7.018V4.545a1.134,1.134,0,0,1,.577-1.01l2.07-1.219a1.14,1.14,0,0,1,1.154,0l2.07,1.219a1.207,1.207,0,0,1,.577,1.01v1.6l1.8-1.08v-1.6a1.134,1.134,0,0,0-.577-1.01L5.633.157a1.14,1.14,0,0,0-1.154,0l-3.9,2.3A1.134,1.134,0,0,0,0,3.465V8.1a1.134,1.134,0,0,0,.577,1.01l3.9,2.3a1.139,1.139,0,0,0,1.154,0L8.28,9.839l1.8-1.08,2.647-1.567a1.14,1.14,0,0,1,1.154,0l2.07,1.219a1.207,1.207,0,0,1,.577,1.01v2.473a1.134,1.134,0,0,1-.577,1.01l-2.07,1.254a1.14,1.14,0,0,1-1.154,0l-2.07-1.219a1.207,1.207,0,0,1-.577-1.01v-1.6l-1.8,1.08v1.6a1.134,1.134,0,0,0,.577,1.01l3.9,2.3a1.14,1.14,0,0,0,1.154,0l3.9-2.3a1.207,1.207,0,0,0,.577-1.01V8.376a1.134,1.134,0,0,0-.577-1.01Z" transform="translate(6 7)"/><path class="b" d="M15,30A15,15,0,1,0,0,15,15,15,0,0,0,15,30Z"/></svg>