<svg xmlns="http://www.w3.org/2000/svg" width="18.056" height="15.401" viewBox="0 0 18.056 15.401"><defs><style>.a{fill:#fedf19;}</style></defs><path class="a" d="M11.617,81.746a4.462,4.462,0,0,0,.377.6c.226.377.453.755.755,1.359s.679,1.132,1.057,1.812.83,1.359,1.208,2.038.83,1.434,1.208,2.114a20.763,20.763,0,0,0,1.132,1.887,13.278,13.278,0,0,0,.906,1.51,8.7,8.7,0,0,0,.528.83,2.146,2.146,0,0,1,.3.906,1.569,1.569,0,0,1-.075.83,1.191,1.191,0,0,1-.377.6,1.275,1.275,0,0,1-.755.226H2.633a2,2,0,0,1-1.057-.226,1.174,1.174,0,0,1-.453-.6,1.287,1.287,0,0,1,0-.755,2.038,2.038,0,0,1,.377-.83c.075-.151.226-.377.453-.83.226-.377.528-.906.906-1.434.377-.6.755-1.208,1.132-1.887s.83-1.434,1.283-2.114.83-1.434,1.208-2.114.755-1.283,1.057-1.812.6-.981.83-1.359l.377-.6a1.782,1.782,0,0,1,.679-.6,1.721,1.721,0,0,1,.83-.226,3.21,3.21,0,0,1,.83.151,1.744,1.744,0,0,1,.528.528Zm-.453,3.473a.566.566,0,0,0-.075-.377,1.042,1.042,0,0,0-.226-.3,1.65,1.65,0,0,0-.377-.226,1.073,1.073,0,0,0-.453-.151.969.969,0,0,0-.755.3,1.048,1.048,0,0,0-.377.755V89.9a1.048,1.048,0,0,0,.377.755.969.969,0,0,0,.755.3.969.969,0,0,0,.755-.3,1.048,1.048,0,0,0,.377-.755V85.219Zm-1.132,6.795a.875.875,0,0,0-.755.3,1.341,1.341,0,0,0-.3.755.875.875,0,0,0,.3.755.969.969,0,0,0,.755.3.875.875,0,0,0,.755-.3.969.969,0,0,0,.3-.755,1.032,1.032,0,0,0-1.057-1.057Z" transform="translate(-1.067 -81.067)"/></svg>